<?xml version="1.0" encoding="iso-8859-1"?>
<!-- Generator: Adobe Illustrator 16.0.4, SVG Export Plug-In . SVG Version: 6.00 Build 0)  -->
<!DOCTYPE svg PUBLIC "-//W3C//DTD SVG 1.1//EN" "http://www.w3.org/Graphics/SVG/1.1/DTD/svg11.dtd">
<svg version="1.1" id="Capa_1" xmlns="http://www.w3.org/2000/svg" xmlns:xlink="http://www.w3.org/1999/xlink" x="0px" y="0px"
	 width="15px" height="15px" viewBox="0 0 15 15" style="enable-background:new 0 0 15 15;" xml:space="preserve">
<path style="fill:#1B6698;" d="M12.604,6.072L7.5,8.145L2.396,6.072L7.5,4L12.604,6.072z M7.5,10.373
	c-1.355,0-2.515-0.097-3.062-0.236c-0.213,0.444-0.342,0.936-0.342,1.46C4.097,13.476,5.619,15,7.5,15
	c1.878,0,3.403-1.524,3.403-3.403c0-0.524-0.129-1.016-0.342-1.46C10.015,10.276,8.855,10.373,7.5,10.373z M7.5,8.483L4.097,7.103
	v2.155c0,0.23,1.522,0.415,3.403,0.415s3.403-0.185,3.403-0.415V7.103L7.5,8.483z M11.989,8.415V6.664l-0.204,0.082v1.669
	c-0.138,0.053-0.238,0.204-0.238,0.389c0,0.156,0.071,0.285,0.177,0.356l-0.109,0.513h0.544L12.049,9.16
	c0.105-0.071,0.179-0.2,0.179-0.356C12.228,8.619,12.126,8.468,11.989,8.415z M15,3.732L7.51,0.009L7.507,0L7.5,0.004L7.493,0
	L7.49,0.009L0,3.732l0.624,1.256L7.5,1.57l6.876,3.418L15,3.732z"/>
<g>
</g>
<g>
</g>
<g>
</g>
<g>
</g>
<g>
</g>
<g>
</g>
<g>
</g>
<g>
</g>
<g>
</g>
<g>
</g>
<g>
</g>
<g>
</g>
<g>
</g>
<g>
</g>
<g>
</g>
</svg>
