<?xml version="1.0" encoding="iso-8859-1"?>
<!-- Generator: Adobe Illustrator 16.0.0, SVG Export Plug-In . SVG Version: 6.00 Build 0)  -->
<!DOCTYPE svg PUBLIC "-//W3C//DTD SVG 1.1//EN" "http://www.w3.org/Graphics/SVG/1.1/DTD/svg11.dtd">
<svg version="1.1" id="Layer_1" xmlns="http://www.w3.org/2000/svg" xmlns:xlink="http://www.w3.org/1999/xlink" x="0px" y="0px"
	 width="30.928px" height="25.134px" viewBox="0 0 30.928 25.134" style="enable-background:new 0 0 30.928 25.134;"
	 xml:space="preserve" fill="#006699">
<path d="M24.791,1.554c0.02-0.948-0.015-1.547-0.015-1.547L15.511,0l0,0h-0.047h-0.047l0,0L6.152,0.007c0,0-0.035,0.599-0.015,1.547
	H0v1.012c0,0.231,0.039,5.68,3.402,8.665c1.403,1.245,3.153,1.871,5.216,1.872c0.312,0,0.633-0.02,0.958-0.048
	c1.172,1.605,2.526,2.729,4.049,3.289v4.445H9.154v2.784H7.677v1.561h7.74h0.094h7.74v-1.561h-1.477v-2.784h-4.471v-4.445
	c1.522-0.56,2.876-1.684,4.049-3.289c0.326,0.028,0.647,0.048,0.958,0.048c2.063-0.001,3.813-0.627,5.216-1.872
	c3.363-2.985,3.402-8.434,3.402-8.665V1.554H24.791z M4.752,9.722c-1.921-1.7-2.489-4.61-2.657-6.144h4.158
	C6.429,5.489,6.843,7.87,7.798,9.963c0.175,0.384,0.359,0.748,0.547,1.104C6.912,11.012,5.706,10.565,4.752,9.722z M26.176,9.722
	c-0.954,0.844-2.16,1.29-3.592,1.345c0.188-0.355,0.372-0.72,0.547-1.104c0.955-2.093,1.369-4.474,1.544-6.385h4.158
	C28.665,5.111,28.097,8.021,26.176,9.722z"/>
<g>
</g>
<g>
</g>
<g>
</g>
<g>
</g>
<g>
</g>
<g>
</g>
<g>
</g>
<g>
</g>
<g>
</g>
<g>
</g>
<g>
</g>
<g>
</g>
<g>
</g>
<g>
</g>
<g>
</g>
</svg>
