<?xml version="1.0" encoding="iso-8859-1"?>
<!-- Generator: Adobe Illustrator 16.0.0, SVG Export Plug-In . SVG Version: 6.00 Build 0)  -->
<!DOCTYPE svg PUBLIC "-//W3C//DTD SVG 1.1//EN" "http://www.w3.org/Graphics/SVG/1.1/DTD/svg11.dtd">
<svg version="1.1" id="Layer_1" xmlns="http://www.w3.org/2000/svg" xmlns:xlink="http://www.w3.org/1999/xlink" x="0px" y="0px"
	 width="31.178px" height="27.467px" viewBox="0 0 31.178 27.467" style="enable-background:new 0 0 31.178 27.467; fill:#006699;"
	 xml:space="preserve">
<g>
	<circle cx="5.042" cy="3.866" r="3.866"/>
	<path d="M30.779,4.925h-9.346V3.866h-2.478v1.059h-8.877H9.446V6.2h0.631v2.806L8.625,8.314H6.449l-1.474,1.709L3.549,8.314
		L0.416,8.896l-0.2,6.949h1.328l0.072,1.443h0.202v0.879v0.65v6.883H1.551L0,26.037v1.43h1.321l1.542-0.251l0.014,0.251h1.708
		v-1.593v-0.173v-6.883h0.973v6.883v0.173v1.593h1.708l0.014-0.251l1.542,0.251h1.321v-1.43L8.59,25.701H8.325v-6.883v-0.65v-0.879
		H8.57l0.316-6.4l1.191,0.539v7.355h9.136v2.343l-5.042,5.689h1.812l3.403-3.845v3.845h1.042v-3.841l3.399,3.841h1.841l-5.071-5.689
		v-2.343h10.182V6.2h0.399V4.925H30.779z M29.887,17.845h-9.291h-1.383H10.97v-6.013l3.717,1.682l-0.014-2.317L10.97,9.432V6.2
		h18.917V17.845z"/>
	<path d="M20.34,16.916c1.198,0,2.29-0.46,3.111-1.213l-1.911-1.984c-0.323,0.275-0.742,0.442-1.2,0.442
		c-1.024,0-1.857-0.832-1.857-1.856c0-0.972,0.75-1.769,1.701-1.849V7.698c-2.471,0.082-4.456,2.116-4.456,4.606
		C15.728,14.847,17.797,16.916,20.34,16.916z"/>
	<path d="M22.138,13.862l1.911,1.986c0.882-0.811,1.45-1.957,1.495-3.236l-2.759,0.011C22.739,13.118,22.496,13.556,22.138,13.862z"
		/>
	<path d="M22.475,12.133c0,0.06-0.004,0.116-0.008,0.175l2.758-0.01c0.002-0.056,0.004-0.109,0.004-0.165
		c0-2.542-2.068-4.61-4.611-4.61c-0.052,0-0.103,0.002-0.155,0.005v2.758c0.051-0.005,0.103-0.009,0.155-0.009
		C21.643,10.276,22.475,11.109,22.475,12.133z"/>
	<rect x="26.727" y="12.72" width="2.313" height="0.563"/>
	<rect x="26.727" y="13.668" width="2.313" height="0.563"/>
	<rect x="26.727" y="14.647" width="2.313" height="0.563"/>
	<rect x="26.727" y="15.647" width="2.313" height="0.563"/>
	<rect x="26.727" y="16.635" width="2.313" height="0.563"/>
</g>
<g>
</g>
<g>
</g>
<g>
</g>
<g>
</g>
<g>
</g>
<g>
</g>
<g>
</g>
<g>
</g>
<g>
</g>
<g>
</g>
<g>
</g>
<g>
</g>
<g>
</g>
<g>
</g>
<g>
</g>
</svg>
